<svg height="960" viewBox="0 0 960 960" width="960" xmlns="http://www.w3.org/2000/svg"><path d="M44.5263 587.008L181.877 358.712C192.48 341.1 218.62 341.1 229.21 358.712L366.56 587.008C377.271 604.82 364.086 627.251 342.893 627.251L68.1928 627.251C47.0003 627.251 33.8145 604.833 44.5263 587.008Z" fill-rule="evenodd"/><path d="M490.67 327.699C428.302 326.679 374.132 361.254 348.1 411.933C341.194 425.373 341.779 441.317 349.581 454.281L449.142 619.757C452.758 625.769 458.983 629.834 466.052 630.814C473.216 631.807 480.543 632.323 487.993 632.323C574.122 632.323 643.993 564.483 644.36 480.66C644.74 397.75 575.78 329.076 490.67 327.699Z" fill-rule="evenodd"/><path d="M884.641 332.757L672.404 332.757C659 332.757 651.265 347.522 659.081 358.129C684.637 392.824 699.645 435.305 699.441 480.924C699.237 525.909 684.393 567.608 659.34 601.76C651.497 612.433 659.163 627.265 672.634 627.265L884.641 627.265C903.767 627.265 919.277 612.156 919.277 593.523L919.277 366.498C919.277 347.866 903.767 332.757 884.641 332.757Z" fill-rule="evenodd"/></svg>